<?xml version="1.0" encoding="UTF-8" standalone="no"?>
<!DOCTYPE svg PUBLIC "-//W3C//DTD SVG 1.1//EN"
 "http://www.w3.org/Graphics/SVG/1.1/DTD/svg11.dtd">
<!-- Generated by graphviz version 2.38.0 (20140413.2041)
 -->
<!-- Title: b Pages: 1 -->
<svg width="584pt" height="463pt"
 viewBox="0.00 0.00 584.38 463.40" xmlns="http://www.w3.org/2000/svg" xmlns:xlink="http://www.w3.org/1999/xlink">
<g id="graph0" class="graph" transform="scale(1 1) rotate(0) translate(168.788 294.824)">
<title>b</title>
<polygon fill="white" stroke="none" points="-168.788,168.579 -168.788,-294.824 415.593,-294.824 415.593,168.579 -168.788,168.579"/>
<!-- 0 -->
<g id="node1" class="node"><title>0</title>
<ellipse fill="#6baed6" stroke="black" cx="-66.825" cy="58.6397" rx="79.0865" ry="18"/>
<text text-anchor="middle" x="-66.825" y="62.3397" font-family="Times,serif" font-size="14.00">Style (Deprecated)</text>
</g>
<!-- 6 -->
<g id="node7" class="node"><title>6</title>
<ellipse fill="#2171b5" stroke="black" cx="4.40589" cy="19.2263" rx="47.3916" ry="18"/>
<text text-anchor="middle" x="4.40589" y="22.9263" font-family="Times,serif" font-size="14.00">SLD Rule</text>
</g>
<!-- 0&#45;&gt;6 -->
<g id="edge2" class="edge"><title>0&#45;&gt;6</title>
<path fill="none" stroke="black" d="M-36.6167,41.9249C-31.9149,39.3233 -27.0843,36.6504 -22.4632,34.0935"/>
</g>
<!-- 1 -->
<g id="node2" class="node"><title>1</title>
<ellipse fill="#ef3b2c" stroke="black" cx="169.268" cy="-198.262" rx="37.8943" ry="18"/>
<text text-anchor="middle" x="169.268" y="-194.562" font-family="Times,serif" font-size="14.00">Service</text>
</g>
<!-- 2 -->
<g id="node3" class="node"><title>2</title>
<ellipse fill="#ef3b2c" stroke="black" cx="249.193" cy="-193.542" rx="31.6951" ry="18"/>
<text text-anchor="middle" x="249.193" y="-189.842" font-family="Times,serif" font-size="14.00">Layer</text>
</g>
<!-- 1&#45;&gt;2 -->
<g id="edge5" class="edge"><title>1&#45;&gt;2</title>
<path fill="none" stroke="black" d="M206.89,-196.04C206.997,-196.034 207.103,-196.028 207.209,-196.022"/>
<polygon fill="black" stroke="black" points="207.286,-199.523 217.063,-195.44 206.874,-192.535 207.286,-199.523"/>
</g>
<!-- 7 -->
<g id="node8" class="node"><title>7</title>
<ellipse fill="#41ab5d" stroke="black" cx="317.787" cy="-147.927" rx="45.4919" ry="18"/>
<text text-anchor="middle" x="317.787" y="-144.227" font-family="Times,serif" font-size="14.00">ViewPort</text>
</g>
<!-- 2&#45;&gt;7 -->
<g id="edge12" class="edge"><title>2&#45;&gt;7</title>
<path fill="none" stroke="black" d="M270.146,-179.608C277.711,-174.578 286.302,-168.865 294.085,-163.689"/>
</g>
<!-- 13 -->
<g id="node14" class="node"><title>13</title>
<ellipse fill="#ef3b2c" stroke="black" cx="321.392" cy="-233.029" rx="30.5947" ry="18"/>
<text text-anchor="middle" x="321.392" y="-229.329" font-family="Times,serif" font-size="14.00">View</text>
</g>
<!-- 2&#45;&gt;13 -->
<g id="edge10" class="edge"><title>2&#45;&gt;13</title>
<path fill="none" stroke="black" d="M272.435,-206.254C280.844,-210.853 290.325,-216.038 298.687,-220.611"/>
</g>
<!-- 3 -->
<g id="node4" class="node"><title>3</title>
<ellipse fill="#6baed6" stroke="black" cx="87.8641" cy="-127.789" rx="29.4969" ry="18"/>
<text text-anchor="middle" x="87.8641" y="-124.089" font-family="Times,serif" font-size="14.00">Type</text>
</g>
<!-- 5 -->
<g id="node6" class="node"><title>5</title>
<ellipse fill="#2171b5" stroke="black" cx="-100.444" cy="-108.522" rx="64.189" ry="18"/>
<text text-anchor="middle" x="-100.444" y="-104.822" font-family="Times,serif" font-size="14.00">SLD Template</text>
</g>
<!-- 3&#45;&gt;5 -->
<g id="edge6" class="edge"><title>3&#45;&gt;5</title>
<path fill="none" stroke="black" d="M58.8537,-124.821C32.649,-122.14 -6.76024,-118.107 -39.8235,-114.724"/>
</g>
<!-- 11 -->
<g id="node12" class="node"><title>11</title>
<ellipse fill="#2171b5" stroke="black" cx="-6.39089" cy="-59.8909" rx="27.8951" ry="18"/>
<text text-anchor="middle" x="-6.39089" y="-56.1909" font-family="Times,serif" font-size="14.00">SLD</text>
</g>
<!-- 3&#45;&gt;11 -->
<g id="edge9" class="edge"><title>3&#45;&gt;11</title>
<path fill="none" stroke="black" d="M68.7902,-114.049C52.3298,-102.191 28.6906,-85.1624 12.333,-73.3789"/>
</g>
<!-- 4 -->
<g id="node5" class="node"><title>4</title>
<ellipse fill="#a1d99b" stroke="black" cx="70.8784" cy="67.2302" rx="40.0939" ry="18"/>
<text text-anchor="middle" x="70.8784" y="70.9302" font-family="Times,serif" font-size="14.00">Graphic</text>
</g>
<!-- 5&#45;&gt;11 -->
<g id="edge8" class="edge"><title>5&#45;&gt;11</title>
<path fill="none" stroke="black" d="M-69.6474,-92.5983C-56.1468,-85.6177 -40.612,-77.5853 -28.316,-71.2275"/>
</g>
<!-- 6&#45;&gt;4 -->
<g id="edge1" class="edge"><title>6&#45;&gt;4</title>
<path fill="none" stroke="black" d="M26.5403,35.2109C33.9427,40.5566 42.1752,46.5018 49.5174,51.8041"/>
</g>
<!-- 8 -->
<g id="node9" class="node"><title>8</title>
<ellipse fill="#edf8e9" stroke="black" cx="149.768" cy="58.6817" rx="29.4969" ry="18"/>
<text text-anchor="middle" x="149.768" y="62.3817" font-family="Times,serif" font-size="14.00">Style</text>
</g>
<!-- 8&#45;&gt;4 -->
<g id="edge14" class="edge"><title>8&#45;&gt;4</title>
<path fill="none" stroke="black" d="M120.841,61.8163C117.323,62.1975 113.684,62.5918 110.049,62.9857"/>
</g>
<!-- 9 -->
<g id="node10" class="node"><title>9</title>
<ellipse fill="#fc9272" stroke="black" cx="224.607" cy="-272.824" rx="44.393" ry="18"/>
<text text-anchor="middle" x="224.607" y="-269.124" font-family="Times,serif" font-size="14.00">Category</text>
</g>
<!-- 9&#45;&gt;2 -->
<g id="edge11" class="edge"><title>9&#45;&gt;2</title>
<path fill="none" stroke="black" d="M230.186,-254.833C233.267,-244.9 237.159,-232.349 240.617,-221.196"/>
<polygon fill="black" stroke="black" points="244.017,-222.049 243.636,-211.461 237.331,-219.976 244.017,-222.049"/>
</g>
<!-- 10 -->
<g id="node11" class="node"><title>10</title>
<ellipse fill="#ef3b2c" stroke="black" cx="384.296" cy="-187.951" rx="27.0966" ry="18"/>
<text text-anchor="middle" x="384.296" y="-184.251" font-family="Times,serif" font-size="14.00">Map</text>
</g>
<!-- 10&#45;&gt;7 -->
<g id="edge15" class="edge"><title>10&#45;&gt;7</title>
<path fill="none" stroke="black" d="M363.98,-175.725C357.409,-171.771 350.04,-167.337 343.151,-163.191"/>
</g>
<!-- 10&#45;&gt;13 -->
<g id="edge13" class="edge"><title>10&#45;&gt;13</title>
<path fill="none" stroke="black" d="M365.763,-201.232C360.626,-204.914 354.932,-208.994 349.384,-212.97"/>
<polygon fill="black" stroke="black" points="346.976,-210.39 340.886,-219.06 351.053,-216.079 346.976,-210.39"/>
</g>
<!-- 11&#45;&gt;6 -->
<g id="edge7" class="edge"><title>11&#45;&gt;6</title>
<path fill="none" stroke="black" d="M-3.94093,-41.938C-2.61134,-32.1949 -0.937534,-19.9295 0.561512,-8.94472"/>
<polygon fill="black" stroke="black" points="4.0439,-9.31089 1.92825,1.07056 -2.89182,-8.36434 4.0439,-9.31089"/>
</g>
<!-- 12 -->
<g id="node13" class="node"><title>12</title>
<ellipse fill="#edf8e9" stroke="black" cx="72.3784" cy="146.579" rx="29.4969" ry="18"/>
<text text-anchor="middle" x="72.3784" y="150.279" font-family="Times,serif" font-size="14.00">Type</text>
</g>
<!-- 12&#45;&gt;4 -->
<g id="edge3" class="edge"><title>12&#45;&gt;4</title>
<path fill="none" stroke="black" d="M72.038,128.573C71.7943,115.679 71.4672,98.3794 71.2226,85.439"/>
</g>
<!-- 14 -->
<g id="node15" class="node"><title>14</title>
<ellipse fill="#41ab5d" stroke="black" cx="216.456" cy="-117.464" rx="55.4913" ry="18"/>
<text text-anchor="middle" x="216.456" y="-113.764" font-family="Times,serif" font-size="14.00">Data Source</text>
</g>
<!-- 14&#45;&gt;2 -->
<g id="edge4" class="edge"><title>14&#45;&gt;2</title>
<path fill="none" stroke="black" d="M224.214,-135.494C229.471,-147.709 236.383,-163.773 241.604,-175.905"/>
</g>
</g>
</svg>
