<?xml version="1.0" encoding="UTF-8" standalone="no"?>
<!DOCTYPE svg PUBLIC "-//W3C//DTD SVG 1.1//EN"
 "http://www.w3.org/Graphics/SVG/1.1/DTD/svg11.dtd">
<!-- Generated by graphviz version 2.38.0 (20140413.2041)
 -->
<!-- Title: b Pages: 1 -->
<svg width="606pt" height="403pt"
 viewBox="0.00 0.00 606.47 403.18" xmlns="http://www.w3.org/2000/svg" xmlns:xlink="http://www.w3.org/1999/xlink">
<g id="graph0" class="graph" transform="scale(1 1) rotate(0) translate(206.872 311.824)">
<title>b</title>
<polygon fill="white" stroke="none" points="-206.872,91.3524 -206.872,-311.824 399.593,-311.824 399.593,91.3524 -206.872,91.3524"/>
<!-- 0 -->
<g id="node1" class="node"><title>0</title>
<ellipse fill="lightgrey" stroke="black" cx="-154.127" cy="-13.1181" rx="48.9926" ry="18"/>
<text text-anchor="middle" x="-154.127" y="-9.41811" font-family="Times,serif" font-size="14.00">SLD Style</text>
</g>
<!-- 5 -->
<g id="node6" class="node"><title>5</title>
<ellipse fill="lightgrey" stroke="black" cx="-59.5263" cy="29.2657" rx="47.3916" ry="18"/>
<text text-anchor="middle" x="-59.5263" y="32.9657" font-family="Times,serif" font-size="14.00">SLD Rule</text>
</g>
<!-- 0&#45;&gt;5 -->
<g id="edge9" class="edge"><title>0&#45;&gt;5</title>
<path fill="none" stroke="black" d="M-122.889,0.877405C-112.448,5.55518 -100.823,10.7638 -90.409,15.4294"/>
</g>
<!-- 1 -->
<g id="node2" class="node"><title>1</title>
<ellipse fill="#ef3b2c" stroke="black" cx="153.268" cy="-215.262" rx="37.8943" ry="18"/>
<text text-anchor="middle" x="153.268" y="-211.562" font-family="Times,serif" font-size="14.00">Service</text>
</g>
<!-- 2 -->
<g id="node3" class="node"><title>2</title>
<ellipse fill="#ef3b2c" stroke="black" cx="233.193" cy="-210.542" rx="31.6951" ry="18"/>
<text text-anchor="middle" x="233.193" y="-206.842" font-family="Times,serif" font-size="14.00">Layer</text>
</g>
<!-- 1&#45;&gt;2 -->
<g id="edge11" class="edge"><title>1&#45;&gt;2</title>
<path fill="none" stroke="black" d="M190.89,-213.04C190.997,-213.034 191.103,-213.028 191.209,-213.022"/>
<polygon fill="black" stroke="black" points="191.286,-216.523 201.063,-212.44 190.874,-209.535 191.286,-216.523"/>
</g>
<!-- 6 -->
<g id="node7" class="node"><title>6</title>
<ellipse fill="#41ab5d" stroke="black" cx="301.787" cy="-164.927" rx="45.4919" ry="18"/>
<text text-anchor="middle" x="301.787" y="-161.227" font-family="Times,serif" font-size="14.00">ViewPort</text>
</g>
<!-- 2&#45;&gt;6 -->
<g id="edge12" class="edge"><title>2&#45;&gt;6</title>
<path fill="none" stroke="black" d="M254.146,-196.608C261.711,-191.578 270.302,-185.865 278.085,-180.689"/>
</g>
<!-- 10 -->
<g id="node11" class="node"><title>10</title>
<ellipse fill="#ef3b2c" stroke="black" cx="305.392" cy="-250.029" rx="30.5947" ry="18"/>
<text text-anchor="middle" x="305.392" y="-246.329" font-family="Times,serif" font-size="14.00">View</text>
</g>
<!-- 2&#45;&gt;10 -->
<g id="edge10" class="edge"><title>2&#45;&gt;10</title>
<path fill="none" stroke="black" d="M256.435,-223.254C264.844,-227.853 274.325,-233.038 282.687,-237.611"/>
</g>
<!-- 3 -->
<g id="node4" class="node"><title>3</title>
<ellipse fill="lightgrey" stroke="black" cx="144.667" cy="-46.3845" rx="48.9926" ry="18"/>
<text text-anchor="middle" x="144.667" y="-42.6845" font-family="Times,serif" font-size="14.00">SLD Type</text>
</g>
<!-- 4 -->
<g id="node5" class="node"><title>4</title>
<ellipse fill="lightgrey" stroke="black" cx="93.5337" cy="69.3524" rx="64.189" ry="18"/>
<text text-anchor="middle" x="93.5337" y="73.0524" font-family="Times,serif" font-size="14.00">SLD Template</text>
</g>
<!-- 3&#45;&gt;4 -->
<g id="edge5" class="edge"><title>3&#45;&gt;4</title>
<path fill="none" stroke="black" d="M136.79,-28.5542C127.209,-6.86854 111.127,29.5306 101.504,51.3112"/>
</g>
<!-- 9 -->
<g id="node10" class="node"><title>9</title>
<ellipse fill="lightgrey" stroke="black" cx="13.6267" cy="-65.0272" rx="27.8951" ry="18"/>
<text text-anchor="middle" x="13.6267" y="-61.3272" font-family="Times,serif" font-size="14.00">SLD</text>
</g>
<!-- 3&#45;&gt;9 -->
<g id="edge8" class="edge"><title>3&#45;&gt;9</title>
<path fill="none" stroke="black" d="M98.8356,-52.9048C79.6462,-55.6348 57.9729,-58.7182 41.2869,-61.092"/>
</g>
<!-- 4&#45;&gt;9 -->
<g id="edge7" class="edge"><title>4&#45;&gt;9</title>
<path fill="none" stroke="black" d="M82.9226,51.5078C67.4695,25.5203 38.9644,-22.4167 23.7761,-47.9589"/>
</g>
<!-- 7 -->
<g id="node8" class="node"><title>7</title>
<ellipse fill="#fc9272" stroke="black" cx="208.607" cy="-289.824" rx="44.393" ry="18"/>
<text text-anchor="middle" x="208.607" y="-286.124" font-family="Times,serif" font-size="14.00">Category</text>
</g>
<!-- 7&#45;&gt;2 -->
<g id="edge3" class="edge"><title>7&#45;&gt;2</title>
<path fill="none" stroke="black" d="M214.186,-271.833C217.267,-261.9 221.159,-249.349 224.617,-238.196"/>
<polygon fill="black" stroke="black" points="228.017,-239.049 227.636,-228.461 221.331,-236.976 228.017,-239.049"/>
</g>
<!-- 8 -->
<g id="node9" class="node"><title>8</title>
<ellipse fill="#ef3b2c" stroke="black" cx="368.296" cy="-204.951" rx="27.0966" ry="18"/>
<text text-anchor="middle" x="368.296" y="-201.251" font-family="Times,serif" font-size="14.00">Map</text>
</g>
<!-- 8&#45;&gt;6 -->
<g id="edge4" class="edge"><title>8&#45;&gt;6</title>
<path fill="none" stroke="black" d="M347.98,-192.725C341.409,-188.771 334.04,-184.337 327.151,-180.191"/>
</g>
<!-- 8&#45;&gt;10 -->
<g id="edge2" class="edge"><title>8&#45;&gt;10</title>
<path fill="none" stroke="black" d="M349.763,-218.232C344.626,-221.914 338.932,-225.994 333.384,-229.97"/>
<polygon fill="black" stroke="black" points="330.976,-227.39 324.886,-236.06 335.053,-233.079 330.976,-227.39"/>
</g>
<!-- 9&#45;&gt;5 -->
<g id="edge6" class="edge"><title>9&#45;&gt;5</title>
<path fill="none" stroke="black" d="M0.884378,-48.6026C-10.2705,-34.2242 -26.6637,-13.0936 -39.5596,3.52898"/>
<polygon fill="black" stroke="black" points="-37.0431,5.99526 -45.9383,11.7509 -42.5739,1.70445 -37.0431,5.99526"/>
</g>
<!-- 11 -->
<g id="node12" class="node"><title>11</title>
<ellipse fill="#41ab5d" stroke="black" cx="200.456" cy="-134.464" rx="55.4913" ry="18"/>
<text text-anchor="middle" x="200.456" y="-130.764" font-family="Times,serif" font-size="14.00">Data Source</text>
</g>
<!-- 11&#45;&gt;2 -->
<g id="edge1" class="edge"><title>11&#45;&gt;2</title>
<path fill="none" stroke="black" d="M208.214,-152.494C213.471,-164.709 220.383,-180.773 225.604,-192.905"/>
</g>
</g>
</svg>
