<?xml version="1.0" encoding="UTF-8" standalone="no"?>
<!DOCTYPE svg PUBLIC "-//W3C//DTD SVG 1.1//EN"
 "http://www.w3.org/Graphics/SVG/1.1/DTD/svg11.dtd">
<!-- Generated by graphviz version 2.38.0 (20140413.2041)
 -->
<!-- Title: b Pages: 1 -->
<svg width="253pt" height="229pt"
 viewBox="0.00 0.00 253.27 229.37" xmlns="http://www.w3.org/2000/svg" xmlns:xlink="http://www.w3.org/1999/xlink">
<g id="graph0" class="graph" transform="scale(1 1) rotate(0) translate(3.70902 225.365)">
<title>b</title>
<polygon fill="white" stroke="none" points="-3.70902,4 -3.70902,-225.365 249.559,-225.365 249.559,4 -3.70902,4"/>
<!-- 0 -->
<g id="node1" class="node"><title>0</title>
<ellipse fill="#fc9272" stroke="black" cx="108.961" cy="-203.365" rx="44.393" ry="18"/>
<text text-anchor="middle" x="108.961" y="-199.665" font-family="Times,serif" font-size="14.00">Category</text>
</g>
<!-- 1 -->
<g id="node2" class="node"><title>1</title>
<ellipse fill="#ef3b2c" stroke="black" cx="130.107" cy="-128.452" rx="31.6951" ry="18"/>
<text text-anchor="middle" x="130.107" y="-124.752" font-family="Times,serif" font-size="14.00">Layer</text>
</g>
<!-- 0&#45;&gt;1 -->
<g id="edge2" class="edge"><title>0&#45;&gt;1</title>
<path fill="none" stroke="black" d="M114.08,-185.231C116.547,-176.489 119.561,-165.814 122.306,-156.089"/>
<polygon fill="black" stroke="black" points="125.687,-156.995 125.035,-146.42 118.95,-155.093 125.687,-156.995"/>
</g>
<!-- 2 -->
<g id="node3" class="node"><title>2</title>
<ellipse fill="#ef3b2c" stroke="black" cx="79.1401" cy="-70.5339" rx="30.5947" ry="18"/>
<text text-anchor="middle" x="79.1401" y="-66.8339" font-family="Times,serif" font-size="14.00">View</text>
</g>
<!-- 1&#45;&gt;2 -->
<g id="edge3" class="edge"><title>1&#45;&gt;2</title>
<path fill="none" stroke="black" d="M115.91,-112.319C108.841,-104.286 100.32,-94.6023 93.261,-86.581"/>
</g>
<!-- 3 -->
<g id="node4" class="node"><title>3</title>
<ellipse fill="#ef3b2c" stroke="black" cx="27.5886" cy="-18" rx="27.0966" ry="18"/>
<text text-anchor="middle" x="27.5886" y="-14.3" font-family="Times,serif" font-size="14.00">Map</text>
</g>
<!-- 3&#45;&gt;2 -->
<g id="edge1" class="edge"><title>3&#45;&gt;2</title>
<path fill="none" stroke="black" d="M42.4994,-33.195C46.8707,-37.6496 51.7523,-42.6242 56.4908,-47.453"/>
<polygon fill="black" stroke="black" points="54.2232,-50.1393 63.7253,-54.8254 59.2194,-45.2365 54.2232,-50.1393"/>
</g>
<!-- 4 -->
<g id="node5" class="node"><title>4</title>
<ellipse fill="#ef3b2c" stroke="black" cx="207.863" cy="-117.181" rx="37.8943" ry="18"/>
<text text-anchor="middle" x="207.863" y="-113.481" font-family="Times,serif" font-size="14.00">Service</text>
</g>
<!-- 4&#45;&gt;1 -->
<g id="edge4" class="edge"><title>4&#45;&gt;1</title>
<path fill="none" stroke="black" d="M171.716,-122.42C171.607,-122.436 171.498,-122.452 171.389,-122.468"/>
<polygon fill="black" stroke="black" points="170.666,-119.036 161.271,-123.935 171.67,-125.964 170.666,-119.036"/>
</g>
</g>
</svg>
