<?xml version="1.0" encoding="UTF-8" standalone="no"?>
<!DOCTYPE svg PUBLIC "-//W3C//DTD SVG 1.1//EN"
 "http://www.w3.org/Graphics/SVG/1.1/DTD/svg11.dtd">
<!-- Generated by graphviz version 2.38.0 (20140413.2041)
 -->
<!-- Title: b Pages: 1 -->
<svg width="250pt" height="243pt"
 viewBox="0.00 0.00 249.78 242.85" xmlns="http://www.w3.org/2000/svg" xmlns:xlink="http://www.w3.org/1999/xlink">
<g id="graph0" class="graph" transform="scale(1 1) rotate(0) translate(-4.82082 238.845)">
<title>b</title>
<polygon fill="white" stroke="none" points="4.82082,4 4.82082,-238.845 254.597,-238.845 254.597,4 4.82082,4"/>
<!-- 0 -->
<g id="node1" class="node"><title>0</title>
<ellipse fill="lightgrey" stroke="black" cx="46.5175" cy="-201.994" rx="37.8943" ry="18"/>
<text text-anchor="middle" x="46.5175" y="-198.294" font-family="Times,serif" font-size="14.00">Service</text>
</g>
<!-- 3 -->
<g id="node4" class="node"><title>3</title>
<ellipse fill="lightgrey" stroke="black" cx="132.413" cy="-167.315" rx="31.6951" ry="18"/>
<text text-anchor="middle" x="132.413" y="-163.615" font-family="Times,serif" font-size="14.00">Layer</text>
</g>
<!-- 0&#45;&gt;3 -->
<g id="edge1" class="edge"><title>0&#45;&gt;3</title>
<path fill="none" stroke="black" d="M75.5977,-190.253C82.4236,-187.498 89.7731,-184.53 96.8471,-181.674"/>
<polygon fill="black" stroke="black" points="98.2852,-184.868 106.248,-177.879 95.6645,-178.377 98.2852,-184.868"/>
</g>
<!-- 1 -->
<g id="node2" class="node"><title>1</title>
<ellipse fill="lightgrey" stroke="black" cx="206.401" cy="-216.845" rx="44.393" ry="18"/>
<text text-anchor="middle" x="206.401" y="-213.145" font-family="Times,serif" font-size="14.00">Category</text>
</g>
<!-- 1&#45;&gt;3 -->
<g id="edge4" class="edge"><title>1&#45;&gt;3</title>
<path fill="none" stroke="black" d="M183.396,-201.445C176.596,-196.893 169.056,-191.845 161.906,-187.059"/>
<polygon fill="black" stroke="black" points="163.4,-183.847 153.143,-181.192 159.506,-189.664 163.4,-183.847"/>
</g>
<!-- 2 -->
<g id="node3" class="node"><title>2</title>
<ellipse fill="lightgrey" stroke="black" cx="149.663" cy="-18" rx="27.0966" ry="18"/>
<text text-anchor="middle" x="149.663" y="-14.3" font-family="Times,serif" font-size="14.00">Map</text>
</g>
<!-- 4 -->
<g id="node5" class="node"><title>4</title>
<ellipse fill="lightgrey" stroke="black" cx="143.674" cy="-91.067" rx="30.5947" ry="18"/>
<text text-anchor="middle" x="143.674" y="-87.367" font-family="Times,serif" font-size="14.00">View</text>
</g>
<!-- 2&#45;&gt;4 -->
<g id="edge2" class="edge"><title>2&#45;&gt;4</title>
<path fill="none" stroke="black" d="M148.183,-36.0615C147.52,-44.1411 146.724,-53.8565 145.986,-62.8594"/>
<polygon fill="black" stroke="black" points="142.487,-62.7075 145.158,-72.9601 149.463,-63.2795 142.487,-62.7075"/>
</g>
<!-- 3&#45;&gt;4 -->
<g id="edge3" class="edge"><title>3&#45;&gt;4</title>
<path fill="none" stroke="black" d="M135.081,-149.246C136.876,-137.091 139.233,-121.135 141.024,-109.007"/>
</g>
</g>
</svg>
