<?xml version="1.0" encoding="UTF-8" standalone="no"?>
<!DOCTYPE svg PUBLIC "-//W3C//DTD SVG 1.1//EN"
 "http://www.w3.org/Graphics/SVG/1.1/DTD/svg11.dtd">
<!-- Generated by graphviz version 2.38.0 (20140413.2041)
 -->
<!-- Title: b Pages: 1 -->
<svg width="220pt" height="244pt"
 viewBox="0.00 0.00 219.53 243.73" xmlns="http://www.w3.org/2000/svg" xmlns:xlink="http://www.w3.org/1999/xlink">
<g id="graph0" class="graph" transform="scale(1 1) rotate(0) translate(-29.7288 239.73)">
<title>b</title>
<polygon fill="white" stroke="none" points="29.7288,4 29.7288,-239.73 249.256,-239.73 249.256,4 29.7288,4"/>
<!-- 0 -->
<g id="node1" class="node"><title>0</title>
<ellipse fill="#ef3b2c" stroke="black" cx="125.54" cy="-149.212" rx="31.6951" ry="18"/>
<text text-anchor="middle" x="125.54" y="-145.512" font-family="Times,serif" font-size="14.00">Layer</text>
</g>
<!-- 1 -->
<g id="node2" class="node"><title>1</title>
<ellipse fill="#ef3b2c" stroke="black" cx="186.702" cy="-87.6148" rx="30.5947" ry="18"/>
<text text-anchor="middle" x="186.702" y="-83.9148" font-family="Times,serif" font-size="14.00">View</text>
</g>
<!-- 0&#45;&gt;1 -->
<g id="edge3" class="edge"><title>0&#45;&gt;1</title>
<path fill="none" stroke="black" d="M141.291,-133.349C150.493,-124.081 162.06,-112.432 171.216,-103.211"/>
</g>
<!-- 3 -->
<g id="node4" class="node"><title>3</title>
<ellipse fill="#41ab5d" stroke="black" cx="88.9739" cy="-217.73" rx="55.4913" ry="18"/>
<text text-anchor="middle" x="88.9739" y="-214.03" font-family="Times,serif" font-size="14.00">Data Source</text>
</g>
<!-- 0&#45;&gt;3 -->
<g id="edge1" class="edge"><title>0&#45;&gt;3</title>
<path fill="none" stroke="black" d="M116.313,-166.502C110.897,-176.651 104.062,-189.458 98.5812,-199.728"/>
</g>
<!-- 2 -->
<g id="node3" class="node"><title>2</title>
<ellipse fill="#ef3b2c" stroke="black" cx="217.959" cy="-18" rx="27.0966" ry="18"/>
<text text-anchor="middle" x="217.959" y="-14.3" font-family="Times,serif" font-size="14.00">Map</text>
</g>
<!-- 2&#45;&gt;1 -->
<g id="edge2" class="edge"><title>2&#45;&gt;1</title>
<path fill="none" stroke="black" d="M210.071,-35.5668C206.655,-43.1757 202.578,-52.2552 198.794,-60.6842"/>
<polygon fill="black" stroke="black" points="195.599,-59.2553 194.696,-69.8115 201.985,-62.1225 195.599,-59.2553"/>
</g>
</g>
</svg>
