<?xml version="1.0" encoding="UTF-8" standalone="no"?>
<!DOCTYPE svg PUBLIC "-//W3C//DTD SVG 1.1//EN"
 "http://www.w3.org/Graphics/SVG/1.1/DTD/svg11.dtd">
<!-- Generated by graphviz version 2.38.0 (20140413.2041)
 -->
<!-- Title: b Pages: 1 -->
<svg width="301pt" height="243pt"
 viewBox="0.00 0.00 300.52 243.47" xmlns="http://www.w3.org/2000/svg" xmlns:xlink="http://www.w3.org/1999/xlink">
<g id="graph0" class="graph" transform="scale(1 1) rotate(0) translate(4 253.37)">
<title>b</title>
<polygon fill="white" stroke="none" points="-4,-9.8949 -4,-253.37 296.516,-253.37 296.516,-9.8949 -4,-9.8949"/>
<!-- 0 -->
<g id="node1" class="node"><title>0</title>
<ellipse fill="#238b45" stroke="black" cx="64.3443" cy="-31.8949" rx="64.189" ry="18"/>
<text text-anchor="middle" x="64.3443" y="-28.1949" font-family="Times,serif" font-size="14.00">SLD Template</text>
</g>
<!-- 2 -->
<g id="node3" class="node"><title>2</title>
<ellipse fill="#238b45" stroke="black" cx="135.133" cy="-178.677" rx="27.8951" ry="18"/>
<text text-anchor="middle" x="135.133" y="-174.977" font-family="Times,serif" font-size="14.00">SLD</text>
</g>
<!-- 0&#45;&gt;2 -->
<g id="edge3" class="edge"><title>0&#45;&gt;2</title>
<path fill="none" stroke="black" d="M73.0244,-49.8932C86.7584,-78.3708 113.322,-133.451 126.822,-161.443"/>
</g>
<!-- 1 -->
<g id="node2" class="node"><title>1</title>
<ellipse fill="#238b45" stroke="black" cx="229.928" cy="-84.0694" rx="47.3916" ry="18"/>
<text text-anchor="middle" x="229.928" y="-80.3694" font-family="Times,serif" font-size="14.00">SLD Rule</text>
</g>
<!-- 2&#45;&gt;1 -->
<g id="edge2" class="edge"><title>2&#45;&gt;1</title>
<path fill="none" stroke="black" d="M150.364,-163.476C165.293,-148.577 188.283,-125.632 205.719,-108.231"/>
<polygon fill="black" stroke="black" points="208.206,-110.694 212.811,-101.152 203.261,-105.739 208.206,-110.694"/>
</g>
<!-- 3 -->
<g id="node4" class="node"><title>3</title>
<ellipse fill="#74c476" stroke="black" cx="263.269" cy="-231.37" rx="29.4969" ry="18"/>
<text text-anchor="middle" x="263.269" y="-227.67" font-family="Times,serif" font-size="14.00">Style</text>
</g>
<!-- 3&#45;&gt;1 -->
<g id="edge4" class="edge"><title>3&#45;&gt;1</title>
<path fill="none" stroke="black" d="M259.181,-213.308C252.782,-185.037 240.469,-130.641 234.05,-102.279"/>
</g>
<!-- 4 -->
<g id="node5" class="node"><title>4</title>
<ellipse fill="#74c476" stroke="black" cx="33.8205" cy="-203.225" rx="29.4969" ry="18"/>
<text text-anchor="middle" x="33.8205" y="-199.525" font-family="Times,serif" font-size="14.00">Type</text>
</g>
<!-- 4&#45;&gt;0 -->
<g id="edge5" class="edge"><title>4&#45;&gt;0</title>
<path fill="none" stroke="black" d="M37.0294,-185.214C42.8917,-152.308 55.2682,-82.8393 61.1326,-49.9222"/>
</g>
<!-- 4&#45;&gt;2 -->
<g id="edge1" class="edge"><title>4&#45;&gt;2</title>
<path fill="none" stroke="black" d="M61.2372,-196.582C76.0049,-193.004 94.1369,-188.61 108.744,-185.071"/>
</g>
</g>
</svg>
