<?xml version="1.0" encoding="UTF-8" standalone="no"?>
<!DOCTYPE svg PUBLIC "-//W3C//DTD SVG 1.1//EN"
 "http://www.w3.org/Graphics/SVG/1.1/DTD/svg11.dtd">
<!-- Generated by graphviz version 2.38.0 (20140413.2041)
 -->
<!-- Title: b Pages: 1 -->
<svg width="189pt" height="188pt"
 viewBox="0.00 0.00 189.27 188.00" xmlns="http://www.w3.org/2000/svg" xmlns:xlink="http://www.w3.org/1999/xlink">
<g id="graph0" class="graph" transform="scale(1 1) rotate(0) translate(4 184)">
<title>b</title>
<polygon fill="white" stroke="none" points="-4,4 -4,-184 185.269,-184 185.269,4 -4,4"/>
<!-- 0 -->
<g id="node1" class="node"><title>0</title>
<ellipse fill="lightgrey" stroke="black" cx="47.634" cy="-162" rx="37.8943" ry="18"/>
<text text-anchor="middle" x="47.634" y="-158.3" font-family="Times,serif" font-size="14.00">Service</text>
</g>
<!-- 2 -->
<g id="node3" class="node"><title>2</title>
<ellipse fill="lightgrey" stroke="black" cx="47.634" cy="-90" rx="31.6951" ry="18"/>
<text text-anchor="middle" x="47.634" y="-86.3" font-family="Times,serif" font-size="14.00">Layer</text>
</g>
<!-- 0&#45;&gt;2 -->
<g id="edge2" class="edge"><title>0&#45;&gt;2</title>
<path fill="none" stroke="black" d="M47.634,-143.697C47.634,-135.983 47.634,-126.712 47.634,-118.112"/>
<polygon fill="black" stroke="black" points="51.1341,-118.104 47.634,-108.104 44.1341,-118.104 51.1341,-118.104"/>
</g>
<!-- 1 -->
<g id="node2" class="node"><title>1</title>
<ellipse fill="lightgrey" stroke="black" cx="146.634" cy="-90" rx="27.0966" ry="18"/>
<text text-anchor="middle" x="146.634" y="-86.3" font-family="Times,serif" font-size="14.00">Map</text>
</g>
<!-- 3 -->
<g id="node4" class="node"><title>3</title>
<ellipse fill="lightgrey" stroke="black" cx="96.634" cy="-18" rx="30.5947" ry="18"/>
<text text-anchor="middle" x="96.634" y="-14.3" font-family="Times,serif" font-size="14.00">View</text>
</g>
<!-- 1&#45;&gt;3 -->
<g id="edge3" class="edge"><title>1&#45;&gt;3</title>
<path fill="none" stroke="black" d="M135.537,-73.4647C129.218,-64.6173 121.16,-53.3368 114.019,-43.3392"/>
<polygon fill="black" stroke="black" points="116.707,-41.0802 108.046,-34.9772 111.011,-45.1489 116.707,-41.0802"/>
</g>
<!-- 2&#45;&gt;3 -->
<g id="edge1" class="edge"><title>2&#45;&gt;3</title>
<path fill="none" stroke="black" d="M58.7529,-73.1159C66.772,-61.66 77.5501,-46.2627 85.5592,-34.8212"/>
</g>
</g>
</svg>
