<?xml version="1.0" encoding="UTF-8" standalone="no"?>
<!DOCTYPE svg PUBLIC "-//W3C//DTD SVG 1.1//EN"
 "http://www.w3.org/Graphics/SVG/1.1/DTD/svg11.dtd">
<!-- Generated by graphviz version 2.38.0 (20140413.2041)
 -->
<!-- Title: b Pages: 1 -->
<svg width="475pt" height="257pt"
 viewBox="0.00 0.00 474.77 257.29" xmlns="http://www.w3.org/2000/svg" xmlns:xlink="http://www.w3.org/1999/xlink">
<g id="graph0" class="graph" transform="scale(1 1) rotate(0) translate(160.428 149.753)">
<title>b</title>
<polygon fill="white" stroke="none" points="-160.428,107.536 -160.428,-149.753 314.343,-149.753 314.343,107.536 -160.428,107.536"/>
<!-- 0 -->
<g id="node1" class="node"><title>0</title>
<ellipse fill="#74c476" stroke="black" cx="81.3014" cy="-127.753" rx="29.4969" ry="18"/>
<text text-anchor="middle" x="81.3014" y="-124.053" font-family="Times,serif" font-size="14.00">Style</text>
</g>
<!-- 5 -->
<g id="node6" class="node"><title>5</title>
<ellipse fill="#238b45" stroke="black" cx="146.641" cy="-96.5034" rx="47.3916" ry="18"/>
<text text-anchor="middle" x="146.641" y="-92.8034" font-family="Times,serif" font-size="14.00">SLD Rule</text>
</g>
<!-- 0&#45;&gt;5 -->
<g id="edge9" class="edge"><title>0&#45;&gt;5</title>
<path fill="none" stroke="black" d="M104.522,-116.648C108.483,-114.753 112.647,-112.762 116.753,-110.798"/>
</g>
<!-- 1 -->
<g id="node2" class="node"><title>1</title>
<ellipse fill="#ef3b2c" stroke="black" cx="-118.732" cy="4.73778" rx="37.8943" ry="18"/>
<text text-anchor="middle" x="-118.732" y="8.43778" font-family="Times,serif" font-size="14.00">Service</text>
</g>
<!-- 2 -->
<g id="node3" class="node"><title>2</title>
<ellipse fill="#ef3b2c" stroke="black" cx="-38.8068" cy="9.45765" rx="31.6951" ry="18"/>
<text text-anchor="middle" x="-38.8068" y="13.1576" font-family="Times,serif" font-size="14.00">Layer</text>
</g>
<!-- 1&#45;&gt;2 -->
<g id="edge11" class="edge"><title>1&#45;&gt;2</title>
<path fill="none" stroke="black" d="M-81.1095,6.95951C-81.0032,6.96578 -80.8969,6.97206 -80.7906,6.97834"/>
<polygon fill="black" stroke="black" points="-80.7136,3.47669 -70.9374,7.56021 -81.1264,10.4645 -80.7136,3.47669"/>
</g>
<!-- 6 -->
<g id="node7" class="node"><title>6</title>
<ellipse fill="#41ab5d" stroke="black" cx="29.7874" cy="55.0727" rx="45.4919" ry="18"/>
<text text-anchor="middle" x="29.7874" y="58.7727" font-family="Times,serif" font-size="14.00">ViewPort</text>
</g>
<!-- 2&#45;&gt;6 -->
<g id="edge12" class="edge"><title>2&#45;&gt;6</title>
<path fill="none" stroke="black" d="M-17.8536,23.3915C-10.289,28.422 -1.6983,34.1347 6.0851,39.3107"/>
</g>
<!-- 10 -->
<g id="node11" class="node"><title>10</title>
<ellipse fill="#ef3b2c" stroke="black" cx="33.3922" cy="-30.029" rx="30.5947" ry="18"/>
<text text-anchor="middle" x="33.3922" y="-26.329" font-family="Times,serif" font-size="14.00">View</text>
</g>
<!-- 2&#45;&gt;10 -->
<g id="edge10" class="edge"><title>2&#45;&gt;10</title>
<path fill="none" stroke="black" d="M-15.5652,-3.25354C-7.15572,-7.85279 2.32455,-13.0377 10.6873,-17.6114"/>
</g>
<!-- 3 -->
<g id="node4" class="node"><title>3</title>
<ellipse fill="#74c476" stroke="black" cx="281.095" cy="-52.5326" rx="29.4969" ry="18"/>
<text text-anchor="middle" x="281.095" y="-48.8326" font-family="Times,serif" font-size="14.00">Type</text>
</g>
<!-- 4 -->
<g id="node5" class="node"><title>4</title>
<ellipse fill="#238b45" stroke="black" cx="242.816" cy="8.07658" rx="64.189" ry="18"/>
<text text-anchor="middle" x="242.816" y="11.7766" font-family="Times,serif" font-size="14.00">SLD Template</text>
</g>
<!-- 3&#45;&gt;4 -->
<g id="edge5" class="edge"><title>3&#45;&gt;4</title>
<path fill="none" stroke="black" d="M270.433,-35.6495C265.389,-27.6634 259.361,-18.1189 254.225,-9.98761"/>
</g>
<!-- 9 -->
<g id="node10" class="node"><title>9</title>
<ellipse fill="#238b45" stroke="black" cx="208.146" cy="-56.2872" rx="27.8951" ry="18"/>
<text text-anchor="middle" x="208.146" y="-52.5872" font-family="Times,serif" font-size="14.00">SLD</text>
</g>
<!-- 3&#45;&gt;9 -->
<g id="edge8" class="edge"><title>3&#45;&gt;9</title>
<path fill="none" stroke="black" d="M251.844,-54.0381C246.771,-54.2992 241.503,-54.5703 236.454,-54.8302"/>
</g>
<!-- 4&#45;&gt;9 -->
<g id="edge7" class="edge"><title>4&#45;&gt;9</title>
<path fill="none" stroke="black" d="M233.159,-9.85231C228.27,-18.9283 222.36,-29.8996 217.512,-38.8986"/>
</g>
<!-- 7 -->
<g id="node8" class="node"><title>7</title>
<ellipse fill="#fc9272" stroke="black" cx="-63.3929" cy="-69.8236" rx="44.393" ry="18"/>
<text text-anchor="middle" x="-63.3929" y="-66.1236" font-family="Times,serif" font-size="14.00">Category</text>
</g>
<!-- 7&#45;&gt;2 -->
<g id="edge3" class="edge"><title>7&#45;&gt;2</title>
<path fill="none" stroke="black" d="M-57.814,-51.8334C-54.7333,-41.8996 -50.8412,-29.349 -47.3825,-18.1959"/>
<polygon fill="black" stroke="black" points="-43.9828,-19.0493 -44.3637,-8.4613 -50.6687,-16.9759 -43.9828,-19.0493"/>
</g>
<!-- 8 -->
<g id="node9" class="node"><title>8</title>
<ellipse fill="#ef3b2c" stroke="black" cx="96.2957" cy="15.0486" rx="27.0966" ry="18"/>
<text text-anchor="middle" x="96.2957" y="18.7486" font-family="Times,serif" font-size="14.00">Map</text>
</g>
<!-- 8&#45;&gt;6 -->
<g id="edge4" class="edge"><title>8&#45;&gt;6</title>
<path fill="none" stroke="black" d="M75.9796,27.2746C69.4091,31.2287 62.0401,35.6633 55.1507,39.8092"/>
</g>
<!-- 8&#45;&gt;10 -->
<g id="edge2" class="edge"><title>8&#45;&gt;10</title>
<path fill="none" stroke="black" d="M77.7628,1.76763C72.6258,-1.91366 66.9322,-5.99376 61.384,-9.96968"/>
<polygon fill="black" stroke="black" points="58.9756,-7.38961 52.886,-16.0595 63.0531,-13.0795 58.9756,-7.38961"/>
</g>
<!-- 9&#45;&gt;5 -->
<g id="edge6" class="edge"><title>9&#45;&gt;5</title>
<path fill="none" stroke="black" d="M188.347,-69.2332C185.45,-71.1276 182.403,-73.1195 179.331,-75.1283"/>
<polygon fill="black" stroke="black" points="177.161,-72.3655 170.707,-80.7676 180.992,-78.2242 177.161,-72.3655"/>
</g>
<!-- 11 -->
<g id="node12" class="node"><title>11</title>
<ellipse fill="#41ab5d" stroke="black" cx="-71.544" cy="85.5359" rx="55.4913" ry="18"/>
<text text-anchor="middle" x="-71.544" y="89.2359" font-family="Times,serif" font-size="14.00">Data Source</text>
</g>
<!-- 11&#45;&gt;2 -->
<g id="edge1" class="edge"><title>11&#45;&gt;2</title>
<path fill="none" stroke="black" d="M-63.7858,67.5065C-58.5294,55.2911 -51.6169,39.2272 -46.3964,27.0953"/>
</g>
</g>
</svg>
