<?xml version="1.0" encoding="UTF-8" standalone="no"?>
<!DOCTYPE svg PUBLIC "-//W3C//DTD SVG 1.1//EN"
 "http://www.w3.org/Graphics/SVG/1.1/DTD/svg11.dtd">
<!-- Generated by graphviz version 2.38.0 (20140413.2041)
 -->
<!-- Title: b Pages: 1 -->
<svg width="364pt" height="331pt"
 viewBox="0.00 0.00 363.91 331.28" xmlns="http://www.w3.org/2000/svg" xmlns:xlink="http://www.w3.org/1999/xlink">
<g id="graph0" class="graph" transform="scale(1 1) rotate(0) translate(1.59718 327.276)">
<title>b</title>
<polygon fill="white" stroke="none" points="-1.59718,4 -1.59718,-327.276 362.309,-327.276 362.309,4 -1.59718,4"/>
<!-- 0 -->
<g id="node1" class="node"><title>0</title>
<ellipse fill="#2171b5" stroke="black" cx="126.318" cy="-305.276" rx="64.189" ry="18"/>
<text text-anchor="middle" x="126.318" y="-301.576" font-family="Times,serif" font-size="14.00">SLD Template</text>
</g>
<!-- 3 -->
<g id="node4" class="node"><title>3</title>
<ellipse fill="#2171b5" stroke="black" cx="222.512" cy="-238.827" rx="27.8951" ry="18"/>
<text text-anchor="middle" x="222.512" y="-235.127" font-family="Times,serif" font-size="14.00">SLD</text>
</g>
<!-- 0&#45;&gt;3 -->
<g id="edge4" class="edge"><title>0&#45;&gt;3</title>
<path fill="none" stroke="black" d="M150.592,-288.508C166.955,-277.205 188.24,-262.501 203.399,-252.03"/>
</g>
<!-- 1 -->
<g id="node2" class="node"><title>1</title>
<ellipse fill="#2171b5" stroke="black" cx="211.425" cy="-161.21" rx="47.3916" ry="18"/>
<text text-anchor="middle" x="211.425" y="-157.51" font-family="Times,serif" font-size="14.00">SLD Rule</text>
</g>
<!-- 4 -->
<g id="node5" class="node"><title>4</title>
<ellipse fill="#a1d99b" stroke="black" cx="250.189" cy="-92.4823" rx="40.0939" ry="18"/>
<text text-anchor="middle" x="250.189" y="-88.7823" font-family="Times,serif" font-size="14.00">Graphic</text>
</g>
<!-- 1&#45;&gt;4 -->
<g id="edge8" class="edge"><title>1&#45;&gt;4</title>
<path fill="none" stroke="black" d="M221.408,-143.511C227.151,-133.329 234.346,-120.572 240.106,-110.36"/>
</g>
<!-- 2 -->
<g id="node3" class="node"><title>2</title>
<ellipse fill="#edf8e9" stroke="black" cx="329.062" cy="-71.876" rx="29.4969" ry="18"/>
<text text-anchor="middle" x="329.062" y="-68.176" font-family="Times,serif" font-size="14.00">Style</text>
</g>
<!-- 2&#45;&gt;4 -->
<g id="edge6" class="edge"><title>2&#45;&gt;4</title>
<path fill="none" stroke="black" d="M301.918,-78.9675C296.482,-80.3878 290.699,-81.8986 285.044,-83.3761"/>
</g>
<!-- 3&#45;&gt;1 -->
<g id="edge3" class="edge"><title>3&#45;&gt;1</title>
<path fill="none" stroke="black" d="M219.94,-220.825C218.606,-211.488 216.947,-199.869 215.448,-189.376"/>
<polygon fill="black" stroke="black" points="218.9,-188.788 214.021,-179.383 211.97,-189.778 218.9,-188.788"/>
</g>
<!-- 5 -->
<g id="node6" class="node"><title>5</title>
<ellipse fill="#6baed6" stroke="black" cx="81.6958" cy="-138.747" rx="79.0865" ry="18"/>
<text text-anchor="middle" x="81.6958" y="-135.047" font-family="Times,serif" font-size="14.00">Style (Deprecated)</text>
</g>
<!-- 5&#45;&gt;1 -->
<g id="edge7" class="edge"><title>5&#45;&gt;1</title>
<path fill="none" stroke="black" d="M145.04,-149.715C152.887,-151.074 160.764,-152.438 168.21,-153.727"/>
</g>
<!-- 6 -->
<g id="node7" class="node"><title>6</title>
<ellipse fill="#edf8e9" stroke="black" cx="221.694" cy="-18" rx="29.4969" ry="18"/>
<text text-anchor="middle" x="221.694" y="-14.3" font-family="Times,serif" font-size="14.00">Type</text>
</g>
<!-- 6&#45;&gt;4 -->
<g id="edge2" class="edge"><title>6&#45;&gt;4</title>
<path fill="none" stroke="black" d="M228.447,-35.6513C232.957,-47.4383 238.866,-62.8855 243.386,-74.6996"/>
</g>
<!-- 7 -->
<g id="node8" class="node"><title>7</title>
<ellipse fill="#6baed6" stroke="black" cx="314.216" cy="-287.658" rx="29.4969" ry="18"/>
<text text-anchor="middle" x="314.216" y="-283.958" font-family="Times,serif" font-size="14.00">Type</text>
</g>
<!-- 7&#45;&gt;0 -->
<g id="edge5" class="edge"><title>7&#45;&gt;0</title>
<path fill="none" stroke="black" d="M285.269,-290.372C259.327,-292.804 220.416,-296.453 187.587,-299.531"/>
</g>
<!-- 7&#45;&gt;3 -->
<g id="edge1" class="edge"><title>7&#45;&gt;3</title>
<path fill="none" stroke="black" d="M292.017,-275.837C277.493,-268.104 258.608,-258.048 244.19,-250.371"/>
</g>
</g>
</svg>
